<svg width="49" height="27" viewBox="0 0 49 27" fill="none" xmlns="http://www.w3.org/2000/svg">
<rect width="49" height="27" rx="10" fill="#FFF0D2"/>
<path d="M9.872 18.14C9.27467 18.14 8.70533 18.0467 8.164 17.86C7.62267 17.6733 7.15133 17.412 6.75 17.076C6.34867 16.74 6.05467 16.3527 5.868 15.914C5.77467 15.718 5.77467 15.536 5.868 15.368C5.97067 15.2 6.13867 15.0927 6.372 15.046C6.54 15.0087 6.70333 15.0367 6.862 15.13C7.03 15.214 7.156 15.3447 7.24 15.522C7.352 15.7553 7.534 15.97 7.786 16.166C8.04733 16.362 8.36 16.5207 8.724 16.642C9.088 16.7633 9.47067 16.824 9.872 16.824C10.32 16.824 10.7307 16.754 11.104 16.614C11.4867 16.474 11.7947 16.2733 12.028 16.012C12.2613 15.7413 12.378 15.41 12.378 15.018C12.378 14.5233 12.182 14.08 11.79 13.688C11.4073 13.296 10.7727 13.0533 9.886 12.96C8.72867 12.848 7.81867 12.5073 7.156 11.938C6.49333 11.3687 6.162 10.664 6.162 9.824C6.162 9.208 6.33467 8.68533 6.68 8.256C7.02533 7.82667 7.492 7.5 8.08 7.276C8.67733 7.052 9.34 6.94 10.068 6.94C10.6373 6.94 11.132 7.01933 11.552 7.178C11.9813 7.33667 12.3547 7.556 12.672 7.836C12.9893 8.116 13.2647 8.44733 13.498 8.83C13.6287 9.03533 13.68 9.23133 13.652 9.418C13.6333 9.59533 13.5447 9.73533 13.386 9.838C13.2087 9.95 13.0173 9.97333 12.812 9.908C12.6067 9.84267 12.4527 9.72133 12.35 9.544C12.2007 9.27333 12.0187 9.04467 11.804 8.858C11.5893 8.67133 11.3373 8.52667 11.048 8.424C10.7587 8.312 10.418 8.256 10.026 8.256C9.33533 8.24667 8.75667 8.37733 8.29 8.648C7.82333 8.90933 7.59 9.31533 7.59 9.866C7.59 10.146 7.66 10.4167 7.8 10.678C7.94933 10.93 8.21533 11.1493 8.598 11.336C8.99 11.5227 9.55 11.6533 10.278 11.728C11.3887 11.84 12.252 12.1807 12.868 12.75C13.4933 13.31 13.806 14.052 13.806 14.976C13.806 15.508 13.694 15.97 13.47 16.362C13.2553 16.754 12.9613 17.0853 12.588 17.356C12.224 17.6173 11.804 17.8133 11.328 17.944C10.8613 18.0747 10.376 18.14 9.872 18.14ZM15.6047 18C15.3433 18 15.1427 17.888 15.0027 17.664C14.8627 17.44 14.8487 17.202 14.9607 16.95L18.8947 7.556C19.0347 7.22933 19.2633 7.066 19.5807 7.066C19.9167 7.066 20.1453 7.22933 20.2667 7.556L24.2147 16.978C24.3173 17.2393 24.2987 17.4773 24.1587 17.692C24.028 17.8973 23.8273 18 23.5567 18C23.4167 18 23.2813 17.9627 23.1507 17.888C23.0293 17.804 22.9407 17.692 22.8847 17.552L19.4127 8.928H19.8047L16.2767 17.552C16.2113 17.7013 16.1133 17.8133 15.9827 17.888C15.8613 17.9627 15.7353 18 15.6047 18ZM16.3467 15.592L16.9067 14.388H22.3947L22.9547 15.592H16.3467ZM26.5964 18C26.3911 18 26.2184 17.93 26.0784 17.79C25.9478 17.65 25.8824 17.4773 25.8824 17.272V7.794C25.8824 7.58867 25.9524 7.416 26.0924 7.276C26.2324 7.136 26.4004 7.066 26.5964 7.066C26.8018 7.066 26.9744 7.136 27.1144 7.276C27.2544 7.416 27.3244 7.58867 27.3244 7.794V16.544H32.3924C32.5978 16.544 32.7704 16.614 32.9104 16.754C33.0504 16.894 33.1204 17.0667 33.1204 17.272C33.1204 17.4773 33.0504 17.65 32.9104 17.79C32.7704 17.93 32.5978 18 32.3924 18H26.5964ZM35.5928 18C35.3875 18 35.2148 17.93 35.0748 17.79C34.9348 17.65 34.8648 17.4773 34.8648 17.272V7.794C34.8648 7.57933 34.9348 7.40667 35.0748 7.276C35.2148 7.136 35.3875 7.066 35.5928 7.066L41.9208 7.066C42.1355 7.066 42.3082 7.13133 42.4388 7.262C42.5695 7.38333 42.6348 7.54667 42.6348 7.752C42.6348 7.948 42.5695 8.10667 42.4388 8.228C42.3082 8.34933 42.1355 8.41 41.9208 8.41H36.3208V11.812H40.3388C40.5535 11.812 40.7262 11.8773 40.8568 12.008C40.9875 12.1293 41.0528 12.288 41.0528 12.484C41.0528 12.68 40.9875 12.8433 40.8568 12.974C40.7262 13.0953 40.5535 13.156 40.3388 13.156L36.3208 13.156V16.656L41.9208 16.656C42.1355 16.656 42.3082 16.7167 42.4388 16.838C42.5695 16.9593 42.6348 17.118 42.6348 17.314C42.6348 17.5193 42.5695 17.6873 42.4388 17.818C42.3082 17.9393 42.1355 18 41.9208 18L35.5928 18Z" fill="#F99C11"/>
</svg>
